<?xml version="1.0" encoding="UTF-8" standalone="no"?>
<!-- Created with Inkscape (http://www.inkscape.org/) -->

<svg
   xmlns:svg="http://www.w3.org/2000/svg"
   xmlns="http://www.w3.org/2000/svg"
   version="1.1"
   width="400"
   height="400"
   id="svg">
  <defs
     id="defs74" />
  <rect
     width="50"
     height="50"
     x="0"
     y="0"
     id="pixel11"
     style="fill:#bd739c" />
  <rect
     width="50"
     height="50"
     x="50"
     y="0"
     id="pixel12"
     style="fill:#c6749b" />
  <rect
     width="50"
     height="50"
     x="100"
     y="0"
     id="pixel13"
     style="fill:#d3779e" />
  <rect
     width="50"
     height="50"
     x="150"
     y="0"
     id="pixel14"
     style="fill:#e989ad" />
  <rect
     width="50"
     height="50"
     x="200"
     y="0"
     id="pixel15"
     style="fill:#fe9fc3" />
  <rect
     width="50"
     height="50"
     x="250"
     y="0"
     id="pixel16"
     style="fill:#ffa7c6" />
  <rect
     width="50"
     height="50"
     x="300"
     y="0"
     id="pixel17"
     style="fill:#feabcf" />
  <rect
     width="50"
     height="50"
     x="350"
     y="0"
     id="pixel18"
     style="fill:#f3afd3" />
  <rect
     width="50"
     height="50"
     x="0"
     y="50"
     id="pixel21"
     style="fill:#72749d" />
  <rect
     width="50"
     height="50"
     x="50"
     y="50"
     id="pixel22"
     style="fill:#7f77a4" />
  <rect
     width="50"
     height="50"
     x="100"
     y="50"
     id="pixel23"
     style="fill:#9377a6" />
  <rect
     width="50"
     height="50"
     x="150"
     y="50"
     id="pixel24"
     style="fill:#b388ac" />
  <rect
     width="50"
     height="50"
     x="200"
     y="50"
     id="pixel25"
     style="fill:#dda1be" />
  <rect
     width="50"
     height="50"
     x="250"
     y="50"
     id="pixel26"
     style="fill:#f4a6c6" />
  <rect
     width="50"
     height="50"
     x="300"
     y="50"
     id="pixel27"
     style="fill:#ffa6ca" />
  <rect
     width="50"
     height="50"
     x="350"
     y="50"
     id="pixel28"
     style="fill:#ffadd1" />
  <rect
     width="50"
     height="50"
     x="0"
     y="100"
     id="pixel31"
     style="fill:#6775a2" />
  <rect
     width="50"
     height="50"
     x="50"
     y="100"
     id="pixel32"
     style="fill:#6d7aa8" />
  <rect
     width="50"
     height="50"
     x="100"
     y="100"
     id="pixel33"
     style="fill:#707cad" />
  <rect
     width="50"
     height="50"
     x="150"
     y="100"
     id="pixel34"
     style="fill:#7a81a8" />
  <rect
     width="50"
     height="50"
     x="200"
     y="100"
     id="pixel35"
     style="fill:#9593b5" />
  <rect
     width="50"
     height="50"
     x="250"
     y="100"
     id="pixel36"
     style="fill:#aa9abf" />
  <rect
     width="50"
     height="50"
     x="300"
     y="100"
     id="pixel37"
     style="fill:#c99fc7" />
  <rect
     width="50"
     height="50"
     x="350"
     y="100"
     id="pixel38"
     style="fill:#f4b0d5" />
  <rect
     width="50"
     height="50"
     x="0"
     y="150"
     id="pixel41"
     style="fill:#75789a" />
  <rect
     width="50"
     height="50"
     x="50"
     y="150"
     id="pixel42"
     style="fill:#72779f" />
  <rect
     width="50"
     height="50"
     x="100"
     y="150"
     id="pixel43"
     style="fill:#6f77a4" />
  <rect
     width="50"
     height="50"
     x="150"
     y="150"
     id="pixel44"
     style="fill:#6976a1" />
  <rect
     width="50"
     height="50"
     x="200"
     y="150"
     id="pixel45"
     style="fill:#7784ad" />
  <rect
     width="50"
     height="50"
     x="250"
     y="150"
     id="pixel46"
     style="fill:#8691ba" />
  <rect
     width="50"
     height="50"
     x="300"
     y="150"
     id="pixel47"
     style="fill:#8e97c1" />
  <rect
     width="50"
     height="50"
     x="350"
     y="150"
     id="pixel48"
     style="fill:#b5aed6" />
  <rect
     width="50"
     height="50"
     x="0"
     y="200"
     id="pixel51"
     style="fill:#ab9177" />
  <rect
     width="50"
     height="50"
     x="50"
     y="200"
     id="pixel52"
     style="fill:#9f8a7c" />
  <rect
     width="50"
     height="50"
     x="100"
     y="200"
     id="pixel53"
     style="fill:#93837d" />
  <rect
     width="50"
     height="50"
     x="150"
     y="200"
     id="pixel54"
     style="fill:#867d88" />
  <rect
     width="50"
     height="50"
     x="200"
     y="200"
     id="pixel55"
     style="fill:#817e99" />
  <rect
     width="50"
     height="50"
     x="250"
     y="200"
     id="pixel56"
     style="fill:#8188af" />
  <rect
     width="50"
     height="50"
     x="300"
     y="200"
     id="pixel57"
     style="fill:#8591c2" />
  <rect
     width="50"
     height="50"
     x="350"
     y="200"
     id="pixel58"
     style="fill:#9ba7d7" />
  <rect
     width="50"
     height="50"
     x="0"
     y="250"
     id="pixel61"
     style="fill:#d6a756" />
  <rect
     width="50"
     height="50"
     x="50"
     y="250"
     id="pixel62"
     style="fill:#d2a65c" />
  <rect
     width="50"
     height="50"
     x="100"
     y="250"
     id="pixel63"
     style="fill:#cca059" />
  <rect
     width="50"
     height="50"
     x="150"
     y="250"
     id="pixel64"
     style="fill:#c09a61" />
  <rect
     width="50"
     height="50"
     x="200"
     y="250"
     id="pixel65"
     style="fill:#b9966e" />
  <rect
     width="50"
     height="50"
     x="250"
     y="250"
     id="pixel66"
     style="fill:#b19a88" />
  <rect
     width="50"
     height="50"
     x="300"
     y="250"
     id="pixel67"
     style="fill:#aa9fa3" />
  <rect
     width="50"
     height="50"
     x="350"
     y="250"
     id="pixel68"
     style="fill:#aeaac3" />
  <rect
     width="50"
     height="50"
     x="0"
     y="300"
     id="pixel71"
     style="fill:#c1914a" />
  <rect
     width="50"
     height="50"
     x="50"
     y="300"
     id="pixel72"
     style="fill:#ca994e" />
  <rect
     width="50"
     height="50"
     x="100"
     y="300"
     id="pixel73"
     style="fill:#d29e4c" />
  <rect
     width="50"
     height="50"
     x="150"
     y="300"
     id="pixel74"
     style="fill:#d3a348" />
  <rect
     width="50"
     height="50"
     x="200"
     y="300"
     id="pixel75"
     style="fill:#dbaa53" />
  <rect
     width="50"
     height="50"
     x="250"
     y="300"
     id="pixel76"
     style="fill:#e6b462" />
  <rect
     width="50"
     height="50"
     x="300"
     y="300"
     id="pixel77"
     style="fill:#ecbf7d" />
  <rect
     width="50"
     height="50"
     x="350"
     y="300"
     id="pixel78"
     style="fill:#eec79f" />
  <rect
     width="50"
     height="50"
     x="0"
     y="350"
     id="pixel81"
     style="fill:#88674d" />
  <rect
     width="50"
     height="50"
     x="50"
     y="350"
     id="pixel82"
     style="fill:#8e684a" />
  <rect
     width="50"
     height="50"
     x="100"
     y="350"
     id="pixel83"
     style="fill:#99704a" />
  <rect
     width="50"
     height="50"
     x="150"
     y="350"
     id="pixel84"
     style="fill:#a67d47" />
  <rect
     width="50"
     height="50"
     x="200"
     y="350"
     id="pixel85"
     style="fill:#c0924e" />
  <rect
     width="50"
     height="50"
     x="250"
     y="350"
     id="pixel86"
     style="fill:#e2b15a" />
  <rect
     width="50"
     height="50"
     x="300"
     y="350"
     id="pixel87"
     style="fill:#fdca68" />
  <rect
     width="50"
     height="50"
     x="350"
     y="350"
     id="pixel88"
     style="fill:#ffd880" />
  <rect
     width="50"
     height="50"
     x="200"
     y="150"
     id="square"
     style="fill:none;stroke:#000000;stroke-width:2;stroke-miterlimit:0;stroke-opacity:1;stroke-dasharray:none" />
  <text
     x="217"
     y="144"
     id="text4603"
     xml:space="preserve"
     style="font-size:36px;font-style:italic;font-variant:normal;font-weight:normal;font-stretch:normal;text-align:start;line-height:125%;writing-mode:lr-tb;text-anchor:start;fill:#000000;font-family:Arial;-inkscape-font-specification:Arial Italic"><tspan
       x="217"
       y="144"
       id="tspan4605"
       style="font-size:36px;font-style:italic;font-variant:normal;font-weight:normal;font-stretch:normal;text-align:start;line-height:125%;writing-mode:lr-tb;text-anchor:start;fill:#ffffff;fill-opacity:1;font-family:Arial;-inkscape-font-specification:Arial Italic">x</tspan></text>
  <text
     x="176.34961"
     y="184.33398"
     id="text4603-8"
     xml:space="preserve"
     style="font-size:36px;font-style:italic;font-variant:normal;font-weight:normal;font-stretch:normal;text-align:start;line-height:125%;writing-mode:lr-tb;text-anchor:start;fill:#ffffff;font-family:Arial;-inkscape-font-specification:Arial Italic"><tspan
       x="176.34961"
       y="184.33398"
       id="tspan4716">y</tspan></text>
</svg>
